<svg version="1.0" xmlns="http://www.w3.org/2000/svg" width="816" height="816" viewBox="0 0 612 612"><path d="M280.7 197.5c-28 5.3-51.3 24.4-62.5 51.2-9.4 22.3-7 51.6 5.8 73.5 5.1 8.7 20 23.8 28.2 28.7 21.8 12.8 46.8 15.4 70.9 7.5 4.5-1.5 8.8-2.4 10.1-2 1.5.4 8.5 9.2 21.3 26.8 21.1 29.1 24.2 32.8 27.7 32.8 3 0 15.5-9.3 17-12.6 1.6-3.4 2-2.8-21.1-34.3-10.6-14.4-19.6-27.3-20.1-28.7-1.1-2.9-.5-4.5 5.1-11.9 5.1-6.9 10.5-18 13.1-27.2 3.2-11.2 3.2-32.4 0-43.6-10.2-35.5-40.8-59.8-77.2-61.2-6.8-.3-13.3.1-18.3 1zm36.8 15.9c10.8 3.7 21 10.2 28.6 18.4 12.8 13.7 18 26.1 18.7 44.7.5 14.6-1.1 22.2-7 34.5-3.3 6.9-5.7 10.1-13.2 17.5-14.4 14.4-28.9 20.5-48.7 20.5-33.3 0-61.4-22.6-68.5-55.4-5.4-25.3 5.5-54.4 26.2-69.7 7.3-5.3 18.5-10.6 26.5-12.4 10.3-2.3 27.5-1.5 37.4 1.9z"/></svg>